<?xml version="1.0" encoding="UTF-8" standalone="no"?>
<!-- Created with Inkscape (http://www.inkscape.org/) -->

<svg
   xmlns:dc="http://purl.org/dc/elements/1.1/"
   xmlns:cc="http://creativecommons.org/ns#"
   xmlns:rdf="http://www.w3.org/1999/02/22-rdf-syntax-ns#"
   xmlns:svg="http://www.w3.org/2000/svg"
   xmlns="http://www.w3.org/2000/svg"
   xmlns:sodipodi="http://sodipodi.sourceforge.net/DTD/sodipodi-0.dtd"
   xmlns:inkscape="http://www.inkscape.org/namespaces/inkscape"
   width="130.44659mm"
   height="122.63571mm"
   viewBox="0 0 130.44659 122.63571"
   version="1.1"
   id="svg8"
   inkscape:version="0.92.5 (2060ec1f9f, 2020-04-08)"
   sodipodi:docname="iiiis-logo.svg">
  <defs
     id="defs2" />
  <sodipodi:namedview
     id="base"
     pagecolor="#ffffff"
     bordercolor="#666666"
     borderopacity="1.0"
     inkscape:pageopacity="0.0"
     inkscape:pageshadow="2"
     inkscape:zoom="0.45729389"
     inkscape:cx="386.9146"
     inkscape:cy="101.4528"
     inkscape:document-units="mm"
     inkscape:current-layer="layer1"
     showgrid="false"
     inkscape:window-width="1366"
     inkscape:window-height="704"
     inkscape:window-x="0"
     inkscape:window-y="27"
     inkscape:window-maximized="1"
     inkscape:snap-nodes="false"
     fit-margin-top="0"
     fit-margin-left="0"
     fit-margin-right="0"
     fit-margin-bottom="0" />
  <metadata
     id="metadata5">
    <rdf:RDF>
      <cc:Work
         rdf:about="">
        <dc:format>image/svg+xml</dc:format>
        <dc:type
           rdf:resource="http://purl.org/dc/dcmitype/StillImage" />
        <dc:title></dc:title>
      </cc:Work>
    </rdf:RDF>
  </metadata>
  <g
     inkscape:label="Layer 1"
     inkscape:groupmode="layer"
     id="layer1"
     transform="translate(-35.667253,-29.494653)">
    <text
       xml:space="preserve"
       style="font-style:normal;font-variant:normal;font-weight:normal;font-stretch:normal;font-size:29.81361771px;line-height:0.44999999;font-family:Ubuntu;-inkscape-font-specification:Ubuntu;letter-spacing:0px;word-spacing:0px;fill:#0f4c81;fill-opacity:1;stroke:none;stroke-width:0.74534047"
       x="101.59407"
       y="83.678215"
       id="text4520"><tspan
         sodipodi:role="line"
         x="101.59407"
         y="83.678215"
         style="font-style:normal;font-variant:normal;font-weight:bold;font-stretch:normal;font-size:29.81361771px;line-height:0.44999999;font-family:Ubuntu;-inkscape-font-specification:'Ubuntu Bold';text-align:center;letter-spacing:0px;text-anchor:middle;fill:#0f4c81;fill-opacity:1;stroke:none;stroke-width:0.74534047;stroke-opacity:1"
         id="tspan4522"
         dx="-1.2676656">IIIIS</tspan><tspan
         sodipodi:role="line"
         x="101.56053"
         y="97.094345"
         style="font-style:normal;font-variant:normal;font-weight:normal;font-stretch:normal;font-size:11.92544746px;line-height:0.44999999;font-family:'Open Sans Condensed';-inkscape-font-specification:'Open Sans Condensed, ';text-align:center;letter-spacing:-0.06708065px;word-spacing:-0.82732785px;text-anchor:middle;fill:#0f4c81;fill-opacity:1;stroke-width:0.74534047"
         id="tspan4524">interešu izglītības izvēļu</tspan><tspan
         sodipodi:role="line"
         x="101.79531"
         y="112.53996"
         style="font-style:normal;font-variant:normal;font-weight:normal;font-stretch:normal;font-size:11.92544746px;line-height:0.44999999;font-family:'Open Sans Condensed';-inkscape-font-specification:'Open Sans Condensed, ';text-align:center;letter-spacing:0.40248385px;word-spacing:0px;text-anchor:middle;fill:#0f4c81;fill-opacity:1;stroke-width:0.74534047"
         id="tspan4731"><tspan
   style="line-height:0.44999999;text-align:center;word-spacing:-0.31304294px;text-anchor:middle;stroke-width:0.74534047"
   id="tspan4733">informācijas</tspan> sistēma</tspan></text>
    <text
       id="text4915"
       y="193.36882"
       x="32.87373"
       style="font-style:normal;font-variant:normal;font-weight:normal;font-stretch:normal;font-size:29.81361771px;line-height:0.44999999;font-family:Ubuntu;-inkscape-font-specification:Ubuntu;text-align:start;letter-spacing:0px;word-spacing:0px;text-anchor:start;fill:#0f4c81;fill-opacity:1;stroke:none;stroke-width:0.74534047"
       xml:space="preserve"
       inkscape:export-xdpi="96"
       inkscape:export-ydpi="96"><tspan
         dx="-1.5700001 0 0 0 0 0.30233502"
         id="tspan4907"
         style="font-style:normal;font-variant:normal;font-weight:bold;font-stretch:normal;font-size:29.81361771px;line-height:0.44999999;font-family:Ubuntu;-inkscape-font-specification:'Ubuntu Bold';text-align:start;letter-spacing:0px;text-anchor:start;fill:#0f4c81;fill-opacity:1;stroke:none;stroke-width:0.74534047;stroke-opacity:1"
         y="193.36882"
         x="32.87373"
         sodipodi:role="line">IIIIS  </tspan><tspan
         id="tspan4913"
         style="font-style:normal;font-variant:normal;font-weight:normal;font-stretch:normal;font-size:11.92544746px;line-height:0.44999999;font-family:'Open Sans Condensed';-inkscape-font-specification:'Open Sans Condensed, ';text-align:start;letter-spacing:0px;word-spacing:0px;text-anchor:start;fill:#0f4c81;fill-opacity:1;stroke-width:0.74534047"
         y="206.78494"
         x="32.87373"
         sodipodi:role="line">interešu izglītības izvēļu informācijas sistēma</tspan></text>
    <path
       inkscape:connector-curvature="0"
       d="m 269.62194,74.679469 c -0.27149,-0.601688 -0.51971,-1.221065 -0.90579,-1.760703 -0.35807,-0.514557 -0.78996,-1.010674 -1.36284,-1.288951 -0.16068,-0.08859 -0.37216,-0.09876 -0.47689,-0.265793 -0.25174,-0.315389 -0.50638,-0.628237 -0.75596,-0.944914 -0.0732,-0.07961 -0.0769,-0.194253 -0.0981,-0.292433 -0.0813,-0.480583 -0.23766,-0.963383 -0.54626,-1.348003 -0.24216,-0.310155 -0.57953,-0.53081 -0.93682,-0.686574 -0.85637,-0.35565 -1.79096,-0.448858 -2.66656,-0.742667 -2.41474,-1.017259 -4.89666,-1.863997 -7.37717,-2.705617 -0.25981,-0.05688 -0.39191,-0.305723 -0.57215,-0.474687 -0.1409,-0.168214 -0.36169,-0.296923 -0.3742,-0.538172 -0.17127,-0.936802 -0.8637,-1.66621 -1.60566,-2.211027 -0.58468,-0.428202 -1.33327,-0.709442 -2.0619,-0.549994 -0.72793,0.152944 -1.34287,0.6312 -1.82641,1.177483 -0.30772,0.444456 -0.62676,0.884421 -1.00327,1.274193 -1.55103,1.610146 -3.64542,2.576462 -5.15511,4.231596 -0.34037,0.367741 -0.62307,0.781786 -0.91097,1.189995 -0.21342,-0.452508 -0.38227,-0.94638 -0.74046,-1.310349 -0.24934,-0.262503 -0.57661,-0.430359 -0.89843,-0.586124 -0.44292,-2.365323 -1.68614,-4.470781 -2.96996,-6.469172 -0.45399,-0.679899 -0.83342,-1.405623 -1.26016,-2.101745 0.36534,0.370554 0.89769,0.451758 1.37166,0.592049 0.39353,0.383843 0.79212,0.834945 1.35615,0.952308 0.38224,0.08352 0.72568,-0.186778 0.90135,-0.5042 0.30129,-0.009 0.61425,-0.03234 0.88145,-0.186779 0.64968,-0.371364 1.24024,-0.893284 1.55916,-1.582042 0.43857,-0.92947 0.47544,-1.979206 0.54483,-2.986196 0.11079,-0.239156 0.29901,-0.457717 0.30411,-0.735992 0.0583,-0.51312 -0.35083,-0.905855 -0.71022,-1.204841 -0.83271,-0.680617 -1.20403,-1.720803 -1.73559,-2.620733 -0.76478,-1.337647 -1.35834,-2.816365 -1.40706,-4.374758 -0.0324,-0.319012 0.0586,-0.642994 -0.0123,-0.957517 -0.3436,-0.949432 -0.81948,-1.854059 -1.43501,-2.653955 0.20023,-0.181683 0.37821,-0.383455 0.52422,-0.612371 0.0889,-0.139476 0.17027,-0.28106 0.22567,-0.429163 0.0723,-0.164035 0.11607,-0.34598 0.23677,-0.480195 0.31016,-0.02394 0.58134,-0.177186 0.84004,-0.35487 0.28194,-0.193653 0.52338,-0.432961 0.73009,-0.702288 0.21432,-0.279263 0.4016,-0.570259 0.43877,-0.917647 0.002,-0.03621 0.0239,-0.04519 0.0576,-0.05028 0.29931,-0.05148 0.56706,-0.192155 0.81908,-0.358073 0.2595,-0.170911 0.49109,-0.378606 0.70086,-0.607523 0.2598,-0.283454 0.49988,-0.579182 0.62724,-0.939469 0.014,-0.0443 0.0432,-0.07005 0.0901,-0.08589 0.0777,-0.02394 0.15508,-0.05508 0.22987,-0.0898 0.36452,-0.170012 0.68657,-0.404917 0.98419,-0.672297 0.35487,-0.318591 0.68436,-0.659246 0.92627,-1.068083 0.021,-0.03621 0.044,-0.06855 0.0838,-0.08739 0.34278,-0.163137 0.65481,-0.373368 0.95311,-0.60932 0.39997,-0.316587 0.77347,-0.658617 1.10656,-1.041174 0.0991,-0.113735 0.19925,-0.216406 0.33549,-0.293631 0.2619,-0.149066 0.50448,-0.327872 0.74315,-0.513239 0.3013,-0.234066 0.58912,-0.482768 0.8779,-0.730693 0.17927,-0.153843 0.33792,-0.334726 0.52948,-0.469449 0.54213,-0.38103 1.06786,-0.782625 1.58349,-1.197478 0.0777,-0.06285 0.16667,-0.118526 0.21759,-0.209521 -0.26998,0.126603 -0.51593,0.289738 -0.77025,0.438409 -0.30329,0.177206 -0.60743,0.352834 -0.90966,0.531945 -0.25143,0.149068 -0.50492,0.295127 -0.74933,0.455024 -0.24694,0.161638 -0.49745,0.318623 -0.72741,0.505275 -0.0558,0.04521 -0.11792,0.07722 -0.18327,0.107164 -0.16648,0.07572 -0.33348,0.149368 -0.49705,0.231072 -0.33226,0.166415 -0.66062,0.339158 -0.97555,0.539878 -0.2646,0.168813 -0.52908,0.337122 -0.76467,0.54413 -0.10391,0.0913 -0.20952,0.154143 -0.34398,0.19785 -0.81327,0.260705 -1.56881,0.637246 -2.20632,1.228936 -0.11312,0.105064 -0.21671,0.180183 -0.3794,0.19815 -0.32144,0.03621 -0.62801,0.15984 -0.92623,0.295127 -0.53591,0.243644 -1.03288,0.546193 -1.42088,1.001007 -0.0239,0.02694 -0.0458,0.04191 -0.0818,0.04311 -0.29842,0.009 -0.5899,0.06675 -0.8794,0.164636 -0.64205,0.217005 -1.21452,0.539519 -1.65617,1.069759 -0.027,0.03621 -0.0583,0.05208 -0.10453,0.05208 -0.29932,8.67e-4 -0.59475,0.03231 -0.89179,0.119127 -0.17926,0.05268 -0.35242,0.115234 -0.51922,0.188577 -0.36413,-0.338738 -0.85809,-0.471303 -1.3049,-0.663586 -1.75921,-0.703545 -3.66311,-0.929438 -5.54413,-0.992925 -0.61645,-0.02094 -1.22921,-0.09159 -1.84341,-0.136497 -0.79063,-0.06915 -1.59316,-0.142472 -2.34537,-0.41192 -0.74272,-0.245738 -1.39679,-0.687321 -2.03164,-1.132495 0.32184,0.364536 0.6902,0.686574 1.06745,0.992205 0.6644,0.525631 1.48166,0.803189 2.29151,1.015792 -1.38865,-0.09219 -2.75584,-0.397971 -4.08172,-0.809863 -0.81281,-0.234064 -1.70018,-0.399945 -2.52699,-0.138874 -0.74414,0.243644 -1.2978,0.851199 -1.70607,1.495659 0.49091,-0.510905 1.07636,-0.975953 1.7917,-1.106608 1.11622,-0.215206 2.21767,0.191277 3.26376,0.535931 -0.83273,-0.104757 -1.68025,-0.333501 -2.5196,-0.16044 -0.6578,0.122432 -1.19522,0.589116 -1.56284,1.128756 0.35122,-0.298121 0.7397,-0.572863 1.19152,-0.693968 0.72713,-0.208324 1.49341,-0.06495 2.2206,0.07244 -0.9811,0.225085 -1.96519,0.532276 -2.7972,1.116243 -0.70721,0.487198 -1.57537,0.789897 -2.44208,0.677684 -0.54557,-0.05118 -1.05198,-0.265793 -1.55103,-0.476902 0.31135,0.306531 0.65185,0.599472 1.05641,0.775171 0.60612,0.269386 1.28233,0.164636 1.92236,0.14547 -0.70794,0.186779 -1.44471,0.403091 -2.18145,0.255319 -0.81428,-0.144571 -1.46913,-0.687293 -2.09294,-1.192242 0.35807,0.510846 0.69174,1.060871 1.19004,1.450641 0.47321,0.367741 1.08005,0.484266 1.66401,0.527097 -0.49095,0.04281 -1.00329,0.05598 -1.46836,-0.132 -0.55885,-0.21012 -0.97228,-0.657031 -1.43293,-1.015852 0.4245,0.558166 0.86596,1.150215 1.51485,1.460996 0.44515,0.22868 0.95012,0.26789 1.43516,0.35526 -0.29902,0.02394 -0.58546,0.119729 -0.87924,0.176307 -1.06451,0.234065 -2.14384,0.462085 -3.13751,0.924259 -1.05128,0.482052 -1.94525,1.259438 -2.66576,2.154905 0.54626,-0.478339 1.09331,-0.96853 1.73854,-1.31035 0.50048,-0.268788 1.02908,-0.489475 1.57537,-0.646706 -1.1856,0.595043 -2.28631,1.382726 -3.18991,2.357962 -0.55,0.614917 -1.03943,1.359798 -1.08224,2.208032 -0.0404,0.755238 0.38021,1.458782 0.94345,1.932692 -0.30212,-0.442182 -0.62897,-0.931655 -0.57955,-1.493413 0.0656,-0.679182 0.52199,-1.226243 0.91839,-1.74891 -0.27237,0.716835 -0.56917,1.509696 -0.3472,2.280377 0.20653,0.688818 0.88146,1.076374 1.5127,1.315559 -0.41786,-0.299018 -0.86081,-0.656253 -0.98262,-1.182663 -0.11612,-0.517458 0.16528,-1.015792 0.49685,-1.390837 0.73456,-0.811297 1.71418,-1.335462 2.6687,-1.841907 -0.6548,0.692471 -1.47574,1.289727 -1.84115,2.201447 -0.28794,0.740451 -0.012,1.53921 0.34602,2.202167 -0.0813,-0.465888 -0.22809,-0.948655 -0.073,-1.417417 0.22359,-0.717612 0.85416,-1.187092 1.33549,-1.728257 -0.068,0.471754 -0.18686,0.933929 -0.32263,1.389401 -0.29332,0.933838 -0.68289,1.87142 -1.3547,2.600078 -0.41121,0.450292 -1.01951,0.784749 -1.6455,0.665141 -0.7641,-0.146969 -1.3222,-0.733806 -1.83305,-1.274941 0.3456,0.523387 0.70133,1.08742 1.26386,1.401911 0.52856,0.289442 1.14943,0.208327 1.71788,0.117629 -0.69987,0.333918 -1.53038,0.621621 -2.28927,0.305722 -0.77367,-0.331494 -1.15758,-1.156801 -1.39084,-1.91575 0.0619,0.792892 0.23646,1.667707 0.85267,2.225064 0.62603,0.538921 1.48975,0.6142 2.27816,0.676218 -0.60384,0.04041 -1.23579,0.102656 -1.81533,-0.113429 -0.48869,-0.177186 -0.87032,-0.544787 -1.25495,-0.879933 0.46213,0.790617 1.29114,1.318432 2.17995,1.494161 1.03062,0.218801 2.10181,-0.02394 3.02979,-0.491688 -0.22149,0.446672 -0.62385,0.796574 -1.11032,0.919862 -0.94345,0.245739 -1.96815,0.194254 -2.85698,0.637096 -0.62898,0.325447 -0.91469,1.039469 -1.04165,1.698685 0.24126,-0.552209 0.66733,-1.040905 1.24686,-1.24468 0.81502,-0.284352 1.69575,-0.225087 2.54399,-0.21072 -0.50937,0.122431 -1.02394,0.231372 -1.51783,0.406801 -0.51679,0.180784 -1.08818,0.439999 -1.31772,0.973739 -0.19945,0.527788 0.0434,1.073382 0.26669,1.550284 -0.012,-0.299677 -0.1283,-0.605369 -0.002,-0.896933 0.14749,-0.40827 0.59062,-0.589118 0.98554,-0.665921 0.56403,-0.104757 1.14208,-0.11613 1.71492,-0.10117 -0.56767,0.186479 -1.15309,0.492406 -1.43881,1.043869 -0.30209,0.567714 -0.217,1.231391 -0.16528,1.844122 -0.1293,0.564034 -0.2589,1.131 -0.3073,1.709041 -0.16048,1.440284 0.0885,2.961056 0.87923,4.193883 0.59799,0.926507 1.43658,1.697967 2.39633,2.238384 -0.56105,-0.493904 -1.08965,-1.040187 -1.46613,-1.691352 -0.47248,-0.796542 -0.59355,-1.759177 -0.48062,-2.667215 0.0488,-0.691751 0.25621,-1.359857 0.31139,-2.050114 0.11172,0.07094 0.0849,0.205033 0.014,0.296924 -0.073,1.13094 -0.15289,2.304025 0.23318,3.39219 0.38629,1.114718 1.26609,1.971813 2.21323,2.633274 -0.33349,-0.325449 -0.66514,-0.65781 -0.93162,-1.041654 -0.53895,-0.736021 -0.83129,-1.650705 -0.79214,-2.563891 0.047,-1.305203 0.57287,-2.520341 1.0335,-3.721439 -0.15748,1.01654 -0.48275,2.014613 -0.4695,3.052586 0.008,0.715368 0.25023,1.409333 0.60906,2.022036 0.28104,0.529312 0.7139,0.967094 0.93161,1.531846 0.27747,0.641525 0.38107,1.432172 -0.012,2.050801 -0.44368,0.699144 -1.348,0.956768 -2.13496,0.851196 -0.76335,-0.08589 -1.45283,-0.483546 -2.00875,-0.998819 0.33511,0.450322 0.64002,0.960449 1.14354,1.24465 0.49459,0.270284 1.07191,0.292433 1.61598,0.386688 -1.34728,0.112237 -2.70044,0.379413 -3.93479,0.945692 -0.51821,0.257114 -1.06601,0.572116 -1.32881,1.113281 -0.18526,0.371362 -0.0877,0.820877 0.13949,1.151652 0.36171,0.534461 0.8984,0.923513 1.44547,1.252015 -0.38303,-0.349214 -0.8497,-0.690975 -0.9767,-1.221006 -0.0805,-0.361695 0.24213,-0.643023 0.54113,-0.770741 0.75375,-0.335115 1.59461,-0.382258 2.40516,-0.449575 0.44296,0.0029 0.88885,-0.09309 1.32886,-0.01499 -0.46142,0.04281 -0.92059,0.128404 -1.36279,0.265794 -0.24486,0.0877 -0.51532,0.19845 -0.65411,0.433351 -0.10932,0.219999 -0.012,0.474657 0.12431,0.659966 0.27147,0.374205 0.64889,0.655535 1.02758,0.913934 -0.23556,-0.27597 -0.43775,-0.591301 -0.485,-0.958953 0.0673,-0.371391 0.41193,-0.577322 0.74708,-0.675498 1.07269,-0.315361 2.20881,-0.201441 3.29917,-0.40749 0.90138,-0.179884 1.85154,-0.582472 2.33951,-1.407091 0.35565,-0.58319 0.34478,-1.294126 0.24903,-1.946728 0.25024,0.602405 0.39798,1.288201 0.17727,1.923832 -0.28195,0.869634 -1.0593,1.464677 -1.86473,1.824936 -0.90875,0.421499 -1.91054,0.562536 -2.89757,0.65257 1.22028,0.009 2.45906,0.08142 3.65867,-0.201439 0.6408,-0.130203 1.24175,-0.393513 1.83897,-0.651884 -0.59427,0.610516 -1.28748,1.193766 -2.14679,1.362073 -0.60463,0.149967 -1.23289,0.06765 -1.84413,0.140074 0.61567,0.08709 1.22549,0.253523 1.85296,0.233168 0.66959,0.01498 1.31113,-0.202936 1.93862,-0.409674 -0.49685,0.488694 -1.04901,1.028363 -1.7784,1.100678 -0.54263,0.06734 -1.06384,-0.126904 -1.59236,-0.207428 0.49976,0.259809 1.01432,0.528595 1.58277,0.593546 0.60904,0.08859 1.207,-0.09819 1.79684,-0.223288 -2.2516,3.150072 -5.15805,5.798131 -8.38413,7.923488 -0.83567,0.113514 -1.67729,0.193453 -2.50265,0.373378 -0.9966,0.219094 -2.0087,0.548526 -2.80086,1.216621 -0.34842,0.330689 -0.77512,0.558138 -1.16416,0.835708 -1.19374,0.818722 -2.40299,1.683889 -3.24607,2.882064 -0.6858,0.964152 -1.06524,2.105449 -1.31329,3.252683 -0.82168,0.106317 -1.64849,-0.05876 -2.43324,-0.293339 -1.24542,-0.379413 -2.42881,-0.941268 -3.55166,-1.596794 -0.8585,-0.518265 -1.70602,-1.08078 -2.40439,-1.805753 -0.28345,-0.374977 -0.71314,-0.586117 -1.09038,-0.848958 -1.20187,-0.76774 -2.49747,-1.462456 -3.92004,-1.697939 -0.91099,-0.154083 -1.88323,-0.04076 -2.69456,0.417086 -0.91837,0.509395 -1.59534,1.356915 -2.10989,2.254597 -0.65626,1.145734 -1.08963,2.403705 -1.45064,3.669029 -0.83273,-0.06275 -1.73781,-0.08413 -2.44649,-0.585438 -0.63936,-0.468026 -0.96639,-1.21734 -1.30304,-1.908319 0.16188,0.618633 0.25263,1.274218 0.58914,1.830838 0.21879,0.333108 0.51896,0.60754 0.84971,0.827554 -0.85931,-0.350834 -1.75405,-0.881474 -2.10766,-1.787289 -0.33797,-0.849739 -0.1337,-1.767325 -0.12571,-2.64806 -0.11971,0.591332 -0.30129,1.170875 -0.36978,1.773241 -0.10873,0.804691 -0.056,1.677292 0.4024,2.373466 0.54996,0.83495 1.42778,1.380479 2.29882,1.830798 -0.64667,-0.113515 -1.2956,-0.302091 -1.85,-0.663659 -0.49755,-0.326273 -0.87924,-0.789164 -1.29856,-1.203351 0.59799,0.854155 1.25651,1.711248 2.1638,2.258295 0.85853,0.521906 1.85442,0.74118 2.82595,0.950082 0.23676,1.828659 0.8165,3.58861 1.45656,5.31015 -0.98116,0.10272 -1.9822,0.0753 -2.9463,0.31094 -0.54483,0.12611 -1.07858,0.430445 -1.34656,0.939085 -0.30331,0.58098 -0.38831,1.2668 -0.30129,1.91203 0.0841,-0.80543 0.52862,-1.67286 1.3517,-1.92383 0.85339,-0.2577 1.76071,-0.18326 2.64066,-0.22509 -0.80539,0.2688 -1.60193,0.66662 -2.17555,1.30892 -0.31135,0.34316 -0.52267,0.83788 -0.37138,1.29999 0.16907,0.54485 0.65998,0.89769 1.12653,1.17973 -0.26071,-0.31216 -0.53446,-0.68141 -0.48944,-1.11182 0.0859,-0.51673 0.54559,-0.85337 0.97595,-1.08814 0.85118,-0.42745 1.7954,-0.65702 2.74109,-0.74116 0.25443,0.39109 0.53743,0.76477 0.75299,1.18041 0.19425,0.37218 0.29454,0.78329 0.36894,1.19446 -0.6068,0.0598 -1.21218,0.1359 -1.81237,0.24126 -0.95676,0.16847 -1.94595,0.43774 -2.69604,1.0881 -0.74045,0.6305 -1.14204,1.56806 -1.3266,2.50485 0.31216,-0.60683 0.69765,-1.19523 1.25279,-1.6064 0.82978,-0.6327 1.87956,-0.85706 2.88652,-1.03647 -0.82611,0.38747 -1.73561,0.70718 -2.35646,1.40856 -0.53669,0.64304 -0.78696,1.46689 -0.99145,2.26489 0.45106,-0.87111 1.02982,-1.7282 1.89357,-2.2339 0.94051,-0.54703 2.03386,-0.71536 3.08141,-0.94786 -0.056,0.5256 -0.12151,1.07631 -0.41856,1.52887 -0.31017,0.4791 -0.75747,0.8453 -1.16788,1.23508 0.40749,-0.17207 0.82012,-0.35807 1.15901,-0.64893 0.34116,-0.31458 0.56033,-0.72937 0.81498,-1.11106 -0.14369,0.66074 -0.30249,1.32664 -0.60091,1.9379 -0.23106,0.47539 -0.56847,0.88957 -0.93311,1.2683 -1.65961,-0.48651 -3.34867,-1.08447 -5.10421,-0.9686 -1.40707,0.0915 -2.72186,0.8298 -3.62548,1.89653 0.75747,-0.54996 1.59901,-1.03797 2.5403,-1.17081 0.99589,-0.1303 1.99839,0.0469 2.97286,0.24456 -1.28301,0.016 -2.64139,-0.0404 -3.81744,0.56403 -1.11767,0.58614 -1.84113,1.68537 -2.41252,2.77207 0.67104,-0.88367 1.43142,-1.79097 2.50259,-2.18813 0.98264,-0.37298 2.06266,-0.16408 3.03125,0.14629 0.68433,0.22299 1.36643,0.46211 2.02126,0.76189 -1.53185,0.0934 -3.08581,0.22328 -4.54531,0.72937 -0.78325,0.28523 -1.5835,0.70576 -2.02573,1.44248 -0.36614,0.59284 -0.37943,1.33476 -0.214,1.99475 0.14249,0.53959 0.36331,1.05936 0.65629,1.53477 -0.24814,-0.65114 -0.47249,-1.36499 -0.30331,-2.06414 0.14329,-0.57138 0.6061,-0.99217 1.11177,-1.25502 0.51971,-0.26697 1.07339,-0.47318 1.64336,-0.60313 -0.65854,0.28347 -1.31484,0.65118 -1.75627,1.23144 -0.35125,0.4525 -0.46437,1.06229 -0.3432,1.6182 0.11431,0.63484 0.45695,1.19224 0.78992,1.73263 -0.0789,-0.32546 -0.21072,-0.6386 -0.25023,-0.973 -0.0695,-0.454 -0.027,-0.95453 0.25443,-1.3325 0.35283,-0.48357 0.95898,-0.68654 1.52595,-0.78181 1.09849,-0.17447 2.21031,-0.009 3.2999,0.15048 -0.76184,0.0404 -1.53549,0.0427 -2.27744,0.24364 -0.53377,0.1461 -1.07562,0.41785 -1.36648,0.91027 -0.30653,0.51528 -0.27028,1.14866 -0.15748,1.71569 0.0795,-0.35368 0.19845,-0.71538 0.45849,-0.97896 0.34234,-0.35645 0.85483,-0.48797 1.33543,-0.48797 0.9863,-0.0239 1.92533,0.32263 2.85181,0.61719 -0.5832,-0.056 -1.1686,-0.17027 -1.75628,-0.10391 -0.68356,0.0539 -1.31185,0.3633 -1.88843,0.71531 0.2679,-0.0428 0.52271,-0.1377 0.78701,-0.19426 0.77663,-0.17907 1.58868,-0.20623 2.37342,-0.0663 0.7456,0.13031 1.46096,0.38627 2.16451,0.65701 0.95895,0.34639 1.9312,0.66002 2.92265,0.89996 1.61162,0.37741 3.3125,0.60017 4.94475,0.21552 1.20629,-0.26701 2.31733,-0.91687 3.15815,-1.81978 0.86521,-0.93093 1.49052,-2.06631 1.93124,-3.25195 -0.18446,0.81133 -0.46509,1.60347 -0.82533,2.35423 -0.51164,1.08743 -1.31335,2.06782 -2.38302,2.64144 -1.31557,0.72273 -2.84593,0.8881 -4.3217,0.93089 1.74892,0.1087 3.54508,0.009 5.21272,-0.56622 1.31479,-0.44953 2.49967,-1.31919 3.23646,-2.50704 0.86375,-1.35248 1.15387,-2.9714 1.28009,-4.54607 0.19785,0.80171 0.40971,1.61598 0.36533,2.44949 -0.027,0.83859 -0.36169,1.63075 -0.77957,2.34611 -0.15049,0.24663 -0.27658,0.51308 -0.48352,0.71978 -0.0404,0.0324 -0.0324,0.22509 0.0362,0.12511 0.1301,-0.27658 0.35727,-0.48792 0.52856,-0.73749 0.85268,-1.15382 1.44549,-2.55135 1.42702,-4.00416 0.01,-1.49275 -0.58246,-2.9072 -1.31035,-4.1829 0.26131,-0.98845 0.3456,-2.04118 0.1329,-3.04665 -0.19665,-0.92357 -0.71536,-1.76515 -1.42556,-2.38229 1.19154,-1.8456 1.65143,-4.114975 1.39896,-6.28757 -0.048,-0.195652 0.065,-0.367742 0.14789,-0.533717 0.0498,0.723434 0.0663,1.465373 0.31582,2.155632 0.23556,0.65479 0.69172,1.206275 1.22176,1.646245 -0.36413,-0.66146 -0.67769,-1.377548 -0.72861,-2.140152 -0.048,-0.812047 0.20652,-1.604168 0.50126,-2.349766 0.12031,0.841526 0.27747,1.705313 0.72939,2.440598 0.20592,0.310965 0.31214,0.670274 0.47025,1.005475 0.54632,1.206255 1.25429,2.328435 1.93563,3.460855 0.15509,0.80169 0.71314,1.42994 1.22546,2.03382 0.32263,0.39108 0.68808,0.75967 0.91543,1.21882 0.056,0.0759 0.002,0.16408 -0.0416,0.22957 -1.35166,2.05599 -2.45755,4.25814 -3.61807,6.42416 -0.50422,0.57951 -1.12579,1.13686 -1.29934,1.92011 -0.16527,0.722 0.21342,1.41226 0.61498,1.98293 -0.4075,0.50498 -0.86151,1.01216 -1.05051,1.64626 -0.19485,0.73676 0.22719,1.43143 0.58839,2.03978 0.19945,0.27926 0.28107,0.61496 0.41411,0.92644 0.6157,1.50826 1.38937,2.94561 2.19924,4.3571 0.11971,0.20953 0.2643,0.41119 0.32867,0.64813 0.69176,2.27531 1.5599,4.49002 2.32691,6.73942 0.0583,0.18525 0.0404,0.38303 0.06,0.57579 0.0498,0.55811 0.22359,1.12728 0.60462,1.5518 0.29452,0.33795 0.70724,0.5485 1.13614,0.66072 0.012,0.62973 0.11431,1.25648 0.28107,1.86405 0.0362,0.21042 0.26878,0.28047 0.44586,0.33876 0.57661,0.15809 1.17897,0.19946 1.77546,0.20296 0.65852,-8.5e-4 1.33771,-0.002 1.96298,-0.23646 0.0494,-0.61938 -0.0981,-1.25576 -0.43186,-1.7814 -0.28106,-0.45844 -0.67401,-0.83716 -1.10149,-1.15757 -0.027,-0.43257 -0.0558,-0.89176 -0.30045,-1.2638 -0.40755,-0.60835 -1.08228,-0.94495 -1.56953,-1.4765 -0.80611,-0.80616 -1.28081,-1.86925 -1.64552,-2.933 -0.31378,-0.91838 -0.64593,-1.83083 -0.94421,-2.75366 -0.29391,-0.89992 -0.58539,-1.81088 -0.6836,-2.75655 -0.10032,-0.79286 -0.042,-1.59536 0.0695,-2.3838 2.16525,2.86586 4.26772,5.77819 6.40124,8.66763 0.11352,0.1401 0.10992,0.33149 0.15709,0.49981 0.16767,0.71018 0.44374,1.44694 1.02842,1.92015 0.44073,0.37057 1.03866,0.48207 1.60049,0.4636 0.0975,0.60981 0.33307,1.19376 0.66664,1.71275 0.17926,0.20295 0.44804,0.29754 0.70205,0.37298 0.81128,0.21372 1.66474,0.19945 2.49299,0.11594 0.38549,-0.0716 0.81945,-0.10034 1.12438,-0.37414 -0.17447,-0.49389 -0.51242,-0.90431 -0.84235,-1.30006 -0.53374,-0.62747 -1.1325,-1.20552 -1.81311,-1.67058 -0.069,-0.0504 -0.16188,-0.0981 -0.15868,-0.19566 -0.0362,-0.58543 -0.0955,-1.24172 -0.53304,-1.68025 -0.50717,-0.4939 -1.22473,-0.6526 -1.82936,-0.98332 -1.26976,-1.15242 -2.32908,-2.51593 -3.28879,-3.93039 -1.56136,-2.3247 -2.84299,-4.8185 -4.18951,-7.26869 -0.0957,-0.11656 0.0504,-0.21549 0.10271,-0.31214 0.80326,-1.14652 1.7467,-2.19262 2.8164,-3.09551 0.29511,-0.28643 0.68803,-0.42595 1.02982,-0.64297 0.72051,-0.40903 1.42928,-0.91617 1.83899,-1.65517 0.29751,-0.51747 0.45254,-1.09919 0.56839,-1.67943 0.51677,-0.43339 1.04021,-0.91987 1.27052,-1.5717 0.22089,-0.64083 0.17207,-1.32885 0.19125,-1.99476 0.62381,-0.54332 1.31707,-1.05342 1.73264,-1.78654 0.40159,-0.77217 0.41638,-1.66616 0.49019,-2.51444 0.91914,-0.45621 1.85376,-0.97444 2.50486,-1.78947 0.51455,-0.63929 0.73459,-1.452845 0.8571,-2.249381 0.1321,-0.891787 0.20025,-1.791727 0.32263,-2.684992 3.22017,0.03238 6.44628,-0.80835 9.23089,-2.428046 2.43984,-1.40412 4.53204,-3.358244 6.25732,-5.572212 1.91645,-2.469415 3.40695,-5.251833 4.54382,-8.158271 1.02984,0.07902 2.17706,0.162238 3.07696,-0.44218 0.59649,-0.395547 0.9826,-1.012111 1.3798,-1.589433 0.78324,-0.840873 1.63885,-1.611556 2.44577,-2.42953 2.01316,-2.024998 3.94366,-4.155569 6.21964,-5.896307 1.72303,1.405563 3.28736,3.076231 4.24563,5.102699 0.0583,0.354453 0.0813,0.71462 0.16068,1.065239 0.1293,0.672536 0.43039,1.294159 0.76407,1.886986 -0.11607,0.195751 -0.25322,0.384652 -0.31983,0.603843 -0.11066,0.301293 0.0458,0.603153 0.11791,0.893281 -0.42965,0.293331 -0.64229,0.82384 -0.61867,1.333256 0.021,0.624528 0.25441,1.250576 0.67106,1.719342 0.23915,0.23764 0.51824,0.430375 0.79214,0.626007 0.34842,0.234062 0.72127,0.479897 1.15166,0.509414 0.3464,0.02098 0.61049,-0.257705 0.74856,-0.547027 0.32988,-0.682904 0.45182,-1.440312 0.61937,-2.173358 0.37742,-0.298113 0.67329,-0.739725 0.66296,-1.23656 -0.002,-0.729408 -0.42229,-1.366504 -0.84008,-1.931974 -0.14449,-0.247236 -0.21342,-0.530061 -0.32992,-0.790676 -0.96045,-2.455357 -2.33135,-4.718763 -3.73991,-6.937932 1.28231,0.324639 2.58237,0.615694 3.80782,1.124324 0.50277,0.225986 1.02029,0.479866 1.37756,0.913966 0.31095,0.37702 0.62677,0.793579 1.09773,0.976703 0.45775,0.160738 0.94351,0.04041 1.40785,-0.02693 0.01,0.591331 -0.0324,1.224717 0.25891,1.763636 0.11767,0.229577 0.3508,0.360888 0.58837,0.439249 0.10575,0.66661 0.19344,1.36722 0.55514,1.951907 0.27387,0.458404 0.77665,0.713123 1.27642,0.851947 0.74043,0.207425 1.5289,0.370554 2.29593,0.217004 0.31215,-0.05598 0.61643,-0.286445 0.64517,-0.620874 0.0548,-0.527067 -0.17266,-1.026118 -0.35727,-1.506014 z M 234.84505,57.791547 c -0.48497,-0.819442 -0.9693,-1.640409 -1.43659,-2.470147 0.48647,0.345593 1.0084,0.637817 1.50602,0.966347 -0.12208,0.487977 -0.18766,1.008459 -0.0691,1.5038 z"
       id="path2"
       style="fill:none;fill-opacity:1;stroke:#0f4c81;stroke-width:0.68781579;stroke-miterlimit:4;stroke-dasharray:none;stroke-opacity:1" />
  </g>
</svg>
